<svg width="375" height="341" viewBox="0 0 375 341" fill="none" xmlns="http://www.w3.org/2000/svg">
<path fill-rule="evenodd" clip-rule="evenodd" d="M63.4052 132.389C114.306 104.561 126.854 26.0039 182.491 9.57611C241.121 -7.73565 323.731 -4.72416 359.242 45.0369C393.387 92.8842 362.188 166.86 329.686 215.838C300.729 259.475 226.596 249.99 195.347 292.015C169.776 326.404 201.141 380.268 179.792 417.426C153.397 463.365 112.62 541.282 63.4052 521.659C2.33509 497.31 39.0708 386.375 -9.42412 341.983C-42.5104 311.695 -109.182 365.263 -141.465 334.12C-170.334 306.27 -137.888 255.886 -140.184 215.838C-142.655 172.739 -189.906 115.524 -155.493 89.4573C-112.754 57.0829 -51.1549 98.2261 1.45934 108.545C23.5474 112.877 43.655 143.186 63.4052 132.389Z" fill="#F25353"/>
</svg>
