<svg width="568" height="540" viewBox="0 0 568 540" fill="none" xmlns="http://www.w3.org/2000/svg">
<g filter="url(#filter0_d_9_5)">
<path fill-rule="evenodd" clip-rule="evenodd" d="M394.252 -79.3686C423.286 -65.5562 455.999 -65.1715 487.816 -63.815C532.111 -61.9265 583.553 -97.0858 619.556 -69.763C653.435 -44.0524 633.135 16.6594 648.074 57.8037C661.595 95.0416 690.17 123.692 703.366 161.059C718.345 203.475 747.774 250.879 730.966 292.522C713.266 336.375 643.767 330.74 618.838 370.48C591.725 413.702 627.012 490.275 587.563 521.127C549.944 550.547 496.169 505.042 449.404 502.987C411.857 501.338 374.977 516.171 337.831 510.156C300.283 504.077 267.112 483.603 232.189 467.816C193.394 450.278 141.62 448.561 118.732 411.111C95.2891 372.754 132.734 316.811 114.577 275.378C92.1562 224.215 -4.41766 208.636 5.74676 153.288C16.6169 94.0968 115.285 109.553 153.291 64.5693C179.412 33.6537 164.667 -17.6525 181.708 -54.9765C201.577 -98.4951 215.673 -166.43 261.142 -171.648C314.356 -177.755 345.446 -102.587 394.252 -79.3686Z" fill="#BA3CBC"/>
<path fill-rule="evenodd" clip-rule="evenodd" d="M394.252 -79.3686C423.286 -65.5562 455.999 -65.1715 487.816 -63.815C532.111 -61.9265 583.553 -97.0858 619.556 -69.763C653.435 -44.0524 633.135 16.6594 648.074 57.8037C661.595 95.0416 690.17 123.692 703.366 161.059C718.345 203.475 747.774 250.879 730.966 292.522C713.266 336.375 643.767 330.74 618.838 370.48C591.725 413.702 627.012 490.275 587.563 521.127C549.944 550.547 496.169 505.042 449.404 502.987C411.857 501.338 374.977 516.171 337.831 510.156C300.283 504.077 267.112 483.603 232.189 467.816C193.394 450.278 141.62 448.561 118.732 411.111C95.2891 372.754 132.734 316.811 114.577 275.378C92.1562 224.215 -4.41766 208.636 5.74676 153.288C16.6169 94.0968 115.285 109.553 153.291 64.5693C179.412 33.6537 164.667 -17.6525 181.708 -54.9765C201.577 -98.4951 215.673 -166.43 261.142 -171.648C314.356 -177.755 345.446 -102.587 394.252 -79.3686Z" stroke="black"/>
</g>
<defs>
<filter id="filter0_d_9_5" x="0.499893" y="-172.5" width="740" height="712" filterUnits="userSpaceOnUse" color-interpolation-filters="sRGB">
<feFlood flood-opacity="0" result="BackgroundImageFix"/>
<feColorMatrix in="SourceAlpha" type="matrix" values="0 0 0 0 0 0 0 0 0 0 0 0 0 0 0 0 0 0 127 0" result="hardAlpha"/>
<feOffset dy="4"/>
<feGaussianBlur stdDeviation="2"/>
<feComposite in2="hardAlpha" operator="out"/>
<feColorMatrix type="matrix" values="0 0 0 0 0 0 0 0 0 0 0 0 0 0 0 0 0 0 0.25 0"/>
<feBlend mode="normal" in2="BackgroundImageFix" result="effect1_dropShadow_9_5"/>
<feBlend mode="normal" in="SourceGraphic" in2="effect1_dropShadow_9_5" result="shape"/>
</filter>
</defs>
</svg>
