<svg width="543" height="525" viewBox="0 0 543 525" fill="none" xmlns="http://www.w3.org/2000/svg">
<path fill-rule="evenodd" clip-rule="evenodd" d="M231.405 132.389C282.306 104.561 294.854 26.0039 350.491 9.57611C409.121 -7.73565 491.731 -4.72416 527.242 45.0369C561.387 92.8842 530.188 166.86 497.686 215.838C468.729 259.475 394.596 249.99 363.347 292.015C337.776 326.404 369.141 380.268 347.792 417.426C321.397 463.365 280.62 541.282 231.405 521.659C170.335 497.31 207.071 386.375 158.576 341.983C125.49 311.695 58.8178 365.263 26.5354 334.12C-2.33372 306.27 30.1122 255.886 27.8159 215.838C25.3446 172.739 -21.9058 115.524 12.5065 89.4573C55.2456 57.0829 116.845 98.2261 169.459 108.545C191.547 112.877 211.655 143.186 231.405 132.389Z" fill="#F25353"/>
</svg>
